<?xml version="1.0" standalone="no"?>
<!DOCTYPE svg PUBLIC "-//W3C//DTD SVG 20010904//EN"
 "http://www.w3.org/TR/2001/REC-SVG-20010904/DTD/svg10.dtd">
<svg version="1.0" xmlns="http://www.w3.org/2000/svg"
 width="1320.000000pt" height="578.000000pt" viewBox="0 0 1320.000000 578.000000"
 preserveAspectRatio="xMidYMid meet">
<g transform="translate(0.000000,578.000000) scale(0.100000,-0.100000)"
fill="#000000" stroke="none">
<path d="M477 5335 c-17 -5 -40 -23 -51 -38 l-21 -28 -3 -2342 c-2 -1288 0
-2366 3 -2396 5 -41 14 -61 35 -83 l28 -28 6146 0 6145 0 26 22 c14 13 30 41
35 63 15 64 12 4722 -3 4764 -7 19 -25 44 -40 55 l-28 21 -6121 0 c-4054 0
-6131 -3 -6151 -10z m12050 -298 c0 -1 3 -977 5 -2170 l3 -2167 -5912 0 -5913
0 0 1603 c0 881 -1 1838 -1 2127 0 289 0 544 1 567 l0 42 88 3 c86 3 11726 -3
11729 -5z"/>
<path d="M8011 3288 c0 -392 4 -742 9 -778 9 -71 31 -162 39 -170 4 -3 6 -9 7
-15 2 -20 29 -75 37 -75 4 0 5 -5 2 -10 -3 -6 1 -17 9 -26 9 -8 16 -22 16 -30
0 -8 4 -14 10 -14 5 0 16 -15 25 -34 9 -19 23 -37 31 -40 8 -3 14 -10 14 -15
0 -12 86 -98 113 -113 11 -6 26 -15 31 -19 27 -23 86 -58 107 -64 13 -4 33
-13 44 -20 11 -6 45 -18 75 -25 30 -7 63 -17 73 -22 22 -11 295 -11 311 0 6 5
38 14 71 22 33 7 69 18 80 25 11 7 31 16 45 20 13 4 36 15 50 25 14 9 45 30
70 46 24 16 60 47 80 68 19 22 44 49 55 61 47 50 125 191 125 226 0 10 4 19
10 21 30 10 65 372 42 423 -6 11 -15 53 -22 93 -6 39 -15 72 -20 72 -4 0 -14
23 -21 50 -7 28 -16 50 -20 50 -3 0 -12 14 -19 30 -7 17 -17 30 -22 30 -5 0
-6 5 -3 10 3 6 2 10 -4 10 -5 0 -12 9 -16 20 -6 20 -121 137 -172 176 -16 12
-38 24 -50 28 -13 4 -23 11 -23 16 0 5 -16 14 -35 20 -19 6 -35 15 -35 19 0 4
-26 14 -57 21 -32 8 -61 19 -65 24 -5 7 -68 11 -175 11 -136 0 -175 -3 -203
-17 -19 -9 -47 -19 -62 -23 -15 -4 -32 -13 -39 -21 -6 -8 -17 -14 -23 -14 -6
0 -28 -16 -49 -35 l-37 -34 0 352 1 352 -205 3 -206 2 1 -712z m964 -295 c76
-39 138 -106 178 -191 29 -62 31 -75 31 -177 0 -102 -2 -115 -31 -177 -59
-125 -161 -208 -283 -227 -261 -42 -471 177 -439 460 13 118 108 257 210 310
69 35 88 39 184 36 78 -3 98 -8 150 -34z"/>
<path d="M2395 3433 c-16 -3 -34 -8 -40 -13 -5 -4 -34 -13 -62 -20 -29 -6 -53
-15 -53 -19 0 -4 -18 -14 -40 -21 -22 -7 -40 -16 -40 -20 0 -4 -14 -13 -30
-20 -34 -14 -204 -175 -213 -202 -4 -10 -11 -18 -16 -18 -5 0 -12 -12 -16 -27
-3 -16 -12 -35 -20 -43 -7 -8 -18 -33 -25 -55 -7 -22 -16 -44 -20 -50 -5 -5
-14 -39 -20 -75 -7 -36 -16 -69 -20 -75 -11 -15 -13 -285 -2 -298 5 -7 15 -42
22 -79 7 -38 16 -68 20 -68 4 0 11 -16 14 -35 4 -19 13 -40 20 -48 7 -7 17
-24 21 -37 4 -14 18 -39 31 -57 13 -17 24 -34 24 -37 0 -5 126 -131 160 -159
41 -34 192 -106 249 -118 31 -7 61 -16 67 -21 15 -11 293 -11 308 0 6 5 38 14
71 22 33 7 69 18 80 25 11 7 31 16 44 20 22 7 74 38 116 70 11 9 33 26 49 38
47 36 136 134 136 150 0 12 -279 287 -291 287 -14 0 -31 -18 -49 -53 -13 -26
-34 -47 -98 -99 -12 -9 -40 -23 -64 -29 -24 -7 -45 -16 -48 -20 -5 -7 -91 -13
-148 -11 l-33 2 40 43 c21 23 50 56 62 72 13 17 28 35 34 42 5 7 26 31 45 54
19 23 50 58 68 77 17 20 32 40 32 45 0 6 10 20 23 32 12 12 36 39 54 61 18 21
44 53 58 69 15 17 38 46 53 65 15 19 35 41 44 48 10 7 18 17 18 22 0 5 16 27
35 47 54 60 63 71 101 121 20 26 43 51 50 55 22 13 16 41 -13 74 -16 16 -40
42 -54 59 -33 36 -103 95 -138 113 -14 8 -28 17 -31 21 -3 4 -22 13 -42 19
-21 7 -38 16 -38 20 0 4 -24 13 -52 20 -29 8 -59 18 -67 25 -14 11 -309 19
-366 9z m258 -409 c6 -6 -418 -576 -433 -582 -17 -6 -35 89 -35 183 0 80 5
112 23 160 63 161 184 244 358 245 44 0 83 -3 87 -6z"/>
<path d="M6758 3433 c-21 -2 -38 -8 -38 -12 0 -4 -27 -13 -60 -20 -33 -8 -60
-17 -60 -22 0 -4 -18 -14 -40 -20 -22 -7 -40 -15 -40 -19 0 -4 -13 -13 -29
-20 -17 -6 -67 -49 -113 -93 -84 -82 -130 -142 -143 -184 -3 -13 -11 -23 -17
-23 -5 0 -8 -7 -4 -15 3 -8 1 -15 -4 -15 -4 0 -12 -15 -15 -32 -4 -18 -12 -36
-16 -39 -5 -3 -14 -34 -20 -70 -6 -35 -15 -68 -20 -73 -11 -12 -12 -296 -1
-296 4 0 14 -34 21 -75 7 -41 16 -75 20 -75 4 0 12 -20 19 -45 7 -25 16 -45
21 -45 5 0 12 -13 16 -30 4 -16 12 -33 18 -37 7 -5 19 -21 27 -37 19 -36 145
-163 171 -171 10 -4 19 -10 19 -15 0 -5 12 -16 28 -24 94 -50 153 -76 197 -86
28 -6 58 -16 68 -21 22 -12 308 -13 316 -1 3 4 33 14 66 21 33 7 65 16 70 20
6 4 26 14 45 21 32 13 90 47 116 69 5 4 21 14 33 21 24 12 98 85 143 142 l26
33 -143 142 c-79 79 -149 143 -156 143 -8 0 -25 -19 -39 -41 -21 -34 -64 -78
-116 -119 -6 -5 -31 -14 -55 -21 -24 -7 -46 -16 -49 -20 -7 -9 -111 -16 -145
-10 l-30 6 20 21 c38 39 125 142 125 148 0 6 23 33 85 100 17 19 50 60 100
124 5 7 21 26 35 41 14 16 41 48 60 71 19 23 52 63 73 89 21 25 51 61 68 78
16 18 29 37 29 42 0 6 6 14 13 18 7 4 29 28 48 53 18 24 44 53 57 63 12 10 22
23 22 28 0 9 -78 97 -114 128 -10 9 -34 30 -55 48 -20 18 -48 37 -63 44 -16 6
-28 15 -28 19 0 4 -18 13 -40 20 -22 7 -40 17 -40 21 0 4 -24 13 -52 19 -29 7
-59 17 -67 23 -13 11 -291 19 -363 10z m255 -410 c5 -8 -417 -576 -432 -581
-16 -6 -36 95 -35 183 1 130 41 232 122 311 34 34 110 75 157 87 33 8 183 8
188 0z"/>
<path d="M4140 3399 c-30 -5 -56 -14 -58 -19 -2 -6 -9 -10 -16 -10 -19 0 -123
-57 -146 -80 -20 -20 -20 -20 -56 17 -20 20 -43 47 -51 60 -13 19 -24 23 -69
23 l-54 0 0 -775 0 -775 205 0 204 0 3 531 c3 492 4 532 21 543 9 7 17 16 17
20 0 12 41 47 66 56 50 19 174 5 174 -20 0 -5 9 -11 19 -15 11 -3 30 -25 43
-48 l23 -42 3 -515 3 -515 204 3 204 3 3 530 c3 492 4 532 21 543 9 7 17 17
17 22 0 20 73 57 119 62 91 8 147 -24 188 -108 22 -45 22 -49 23 -550 l0 -505
205 3 205 3 0 462 c0 452 -6 660 -20 652 -3 -2 -12 23 -19 56 -6 32 -16 59
-20 59 -5 0 -12 11 -15 24 -13 54 -149 199 -212 228 -13 6 -24 14 -24 18 0 4
-20 13 -45 20 -25 7 -45 16 -45 20 0 11 -123 30 -200 30 -82 0 -200 -18 -200
-30 0 -4 -12 -11 -27 -15 -36 -8 -99 -51 -137 -92 l-29 -31 -39 36 c-64 61
-75 70 -100 77 -12 4 -32 13 -44 20 -50 32 -223 44 -344 24z"/>
<path d="M10070 2891 c0 -275 4 -502 8 -505 5 -3 14 -37 21 -76 7 -38 16 -70
20 -70 4 0 13 -18 20 -40 6 -22 16 -40 20 -40 5 0 12 -12 16 -27 8 -32 9 -34
104 -131 40 -39 76 -72 81 -72 5 0 15 -6 22 -13 21 -21 119 -65 173 -78 28 -6
54 -16 59 -20 13 -12 263 -12 270 0 3 5 23 12 43 16 72 13 218 95 283 158 18
18 19 18 31 -5 10 -20 25 -40 68 -94 4 -5 14 -20 20 -32 10 -19 20 -22 71 -22
l60 0 0 775 0 775 -205 0 -205 0 0 -451 c0 -453 -5 -525 -37 -557 -7 -7 -13
-19 -13 -25 0 -16 -95 -104 -122 -112 -13 -4 -26 -13 -30 -19 -9 -14 -166 -14
-176 0 -4 6 -21 16 -38 21 -37 13 -84 51 -84 69 0 6 -6 14 -13 17 -7 3 -19 24
-26 48 -7 24 -17 52 -22 61 -5 10 -9 226 -9 483 l0 465 -205 0 -205 0 0 -499z"/>
</g>
</svg>
